#!OML:ASF \\sashay\E\Suitcase\Project 1\Capture day 1\Session 1\Male1.ASF
:FULLY-SPECIFIED
:DEGREES
177
root 0.168622 17.3337 -32.2202 7.4948 0.909709 -4.46805
lowerback 2.9356 -1.35105 2.50108
upperback 0.589474 -1.68382 3.4886
thorax -1.00769 -0.845894 2.24326
lowerneck -16.9545 0.305134 -1.88331
upperneck 16.3023 0.899163 -0.0112379
head 7.82085 0.306657 0.408722
rclavicle -3.47873e-015 2.0276e-014
rhumerus -41.2809 -26.9719 -64.6063
rradius 19.1418
rwrist -1.16876
rhand -13.9134 19.0631
rfingers 7.12502
rthumb 12.2126 -10.5603
lclavicle -3.47873e-015 2.0276e-014
lhumerus -35.3222 5.26586 82.2807
lradius 35.4908
lwrist -3.25164
lhand -3.39267 42.2659
lfingers 7.12502
lthumb 22.3371 70.9947
rfemur -9.98858 0.592803 29.913
rtibia 24.41
rfoot -21.6804 -10.0996
rtoes 18.106
lfemur -28.8734 0.0330136 -11.6024
ltibia 56.0287
lfoot -14.6486 -3.28352
ltoes -2.93601
178
root 0.157667 17.3358 -32.2113 7.43363 0.83979 -4.42145
lowerback 3.06926 -1.27439 2.52679
upperback 0.733059 -1.58054 3.47727
thorax -0.938199 -0.793889 2.21438
lowerneck -16.5772 0.256517 -1.9171
upperneck 15.4786 0.839246 -0.0842918
head 7.48383 0.276852 0.37939
rclavicle -1.11319e-014 1.66979e-014
rhumerus -41.1485 -26.7513 -64.8024
rradius 19.2069
rwrist -1.35825
rhand -14.1742 18.675
rfingers 7.12502
rthumb 11.9611 -10.9633
lclavicle -1.11319e-014 1.66979e-014
lhumerus -35.0407 5.2464 82.4657
lradius 35.475
lwrist -3.51858
lhand -3.3116 41.7659
lfingers 7.12502
lthumb 22.4149 70.4853
rfemur -9.8429 0.106794 29.9016
rtibia 24.2086
rfoot -21.4994 -9.73156
rtoes 17.289
lfemur -29.5776 0.0606369 -11.6497
ltibia 57.036
lfoot -14.7986 -2.82363
ltoes -4.18121
179
root 0.151152 17.3284 -32.1967 7.04973 0.812074 -4.51239
lowerback 3.44702 -1.25723 2.7229
upperback 0.974519 -1.54235 3.49419
thorax -0.907033 -0.774472 2.12643
lowerneck -16.67 0.318296 -1.95452
upperneck 15.3785 0.920743 -0.0130146
head 7.4655 0.3212 0.41795
rclavicle 2.38542e-015 1.66979e-014
rhumerus -41.1272 -26.8361 -64.7858
rradius 19.2301
rwrist -1.43701
rhand -14.3614 18.6441
rfingers 7.12502
rthumb 11.7806 -11.0046
lclavicle 2.38542e-015 1.66979e-014
lhumerus -34.9923 4.83045 82.7239
lradius 35.8125
lwrist -2.90896
lhand -3.74911 42.3684
lfingers 7.12502
lthumb 21.9949 71.1378
rfemur -9.25653 0.0895955 30.0269
rtibia 24.1094
rfoot -21.6369 -9.6791
rtoes 18.1323
lfemur -29.9111 0.00828392 -11.5605
ltibia 57.9814
lfoot -15.2384 -2.72187
ltoes -4.67842
180
root 0.134479 17.3334 -32.1743 7.45775 0.346996 -4.55212
lowerback 2.96532 -1.09547 2.7115
upperback 1.01732 -1.35443 3.50005
thorax -0.596173 -0.679209 2.11935
lowerneck -16.7357 0.412613 -1.81715
upperneck 15.3191 1.05864 -0.239813
head 7.45817 0.373639 0.33639
rclavicle 8.64713e-015 -1.31198e-014
rhumerus -40.9522 -26.7438 -64.9404
rradius 19.1753
rwrist -1.64898
rhand -14.3803 18.4323
rfingers 7.12502
rthumb 11.7624 -11.2175
lclavicle 8.64713e-015 -1.31198e-014
lhumerus -35.0225 5.06268 82.7184
lradius 36.0066
lwrist -3.29442
lhand -3.40963 41.9129
lfingers 7.12502
lthumb 22.3208 70.6437
rfemur -9.57121 0.450627 30.0954
rtibia 23.9681
rfoot -21.3399 -9.68273
rtoes 16.875
lfemur -31.0144 0.520803 -11.5605
ltibia 58.6934
lfoot -15.4467 -2.61405
ltoes -5.61983
181
root 0.113211 17.3294 -32.1518 7.26608 0.0758467 -4.49904
lowerback 3.30336 -0.993621 2.60418
upperback 1.03439 -1.20579 3.4708
thorax -0.768854 -0.6057 2.15083
lowerneck -16.5048 0.475164 -1.8853
upperneck 15.2985 1.13224 -0.117174
head 7.40961 0.417256 0.394986
rclavicle -1.38155e-014 4.6118e-014
rhumerus -41.1307 -26.8584 -64.7652
rradius 19.0344
rwrist -1.55783
rhand -14.2551 18.1961
rfingers 7.12502
rthumb 11.8831 -11.4467
lclavicle -1.38155e-014 4.6118e-014
lhumerus -35.1746 4.95433 82.8068
lradius 36.1067
lwrist -3.15813
lhand -3.52342 41.7332
lfingers 7.12502
lthumb 22.2115 70.4769
rfemur -9.1786 0.636951 30.1156
rtibia 23.8611
rfoot -21.4178 -9.76935
rtoes 17.0562
lfemur -31.4487 0.698766 -11.5823
ltibia 59.352
lfoot -15.9078 -2.69528
ltoes -4.58953
182
root 0.107182 17.3344 -32.135 7.28197 -0.0685137 -4.43951
lowerback 3.43502 -0.967587 2.63691
upperback 1.09128 -1.1662 3.43912
thorax -0.786134 -0.58586 2.10019
lowerneck -16.7784 0.534042 -1.68382
upperneck 15.466 1.2141 -0.349195
head 7.51418 0.443617 0.296723
rclavicle 4.17448e-015 -2.46493e-014
rhumerus -41.0788 -26.8638 -64.724
rradius 18.9483
rwrist -1.48195
rhand -14.4025 18.3562
rfingers 7.12502
rthumb 11.741 -11.2948
lclavicle 4.17448e-015 -2.46493e-014
lhumerus -35.1397 5.02179 82.8644
lradius 36.2032
lwrist -3.03009
lhand -3.60051 41.452
lfingers 7.12502
lthumb 22.1375 70.2046
rfemur -9.05889 0.606362 30.0142
rtibia 23.6483
rfoot -21.3419 -9.40439
rtoes 17.5035
lfemur -32.0659 0.730219 -11.6784
ltibia 59.8179
lfoot -16.1731 -2.73884
ltoes -5.51585
183
root 0.0926651 17.333 -32.1143 7.22322 -0.233978 -4.49041
lowerback 3.54597 -0.924064 2.69229
upperback 1.19416 -1.10534 3.43813
thorax -0.744602 -0.555082 2.06658
lowerneck -16.7458 0.657111 -1.72775
upperneck 15.2986 1.37628 -0.275403
head 7.45129 0.52728 0.345472
rclavicle -1.47101e-014 3.85642e-014
rhumerus -41.0142 -26.3581 -65.1277
rradius 19.1965
rwrist -2.09137
rhand -14.3532 18.0186
rfingers 7.12502
rthumb 11.7885 -11.6296
lclavicle -1.47101e-014 3.85642e-014
lhumerus -35.154 5.26534 82.8684
lradius 36.3375
lwrist -3.27984
lhand -3.58721 41.685
lfingers 7.12502
lthumb 22.1503 70.4361
rfemur -8.80863 0.710033 30.1594
rtibia 23.521
rfoot -21.2352 -9.61179
rtoes 16.7498
lfemur -32.572 0.910998 -11.6259
ltibia 60.2477
lfoot -16.5461 -2.68459
ltoes -4.21644
184
root 0.0768444 17.3286 -32.0938 7.21598 -0.414367 -4.80724
lowerback 3.63617 -0.887015 3.01713
upperback 1.22873 -1.04089 3.50067
thorax -0.764995 -0.522731 1.94783
lowerneck -16.5743 0.781443 -1.82098
upperneck 15.0905 1.54898 -0.203289
head 7.3506 0.613763 0.401586
rclavicle -1.63997e-014 4.01545e-014
rhumerus -41.086 -26.539 -65.0069
rradius 18.9869
rwrist -1.74064
rhand -14.3501 18.2108
rfingers 7.12502
rthumb 11.7915 -11.4373
lclavicle -1.63997e-014 4.01545e-014
lhumerus -35.1962 5.21713 82.8864
lradius 36.2677
lwrist -3.17271
lhand -3.49329 40.8245
lfingers 7.12502
lthumb 22.2405 69.5649
rfemur -8.64287 1.14651 30.5695
rtibia 23.345
rfoot -21.2413 -9.78851
rtoes 17.1151
lfemur -33.2776 1.34204 -11.3359
ltibia 60.4517
lfoot -16.1898 -2.40638
ltoes -5.836
185
root 0.0665074 17.3275 -32.0684 7.21474 -0.526135 -4.61609
lowerback 3.67328 -0.855015 2.8935
upperback 1.27526 -1.00329 3.45349
thorax -0.737189 -0.503733 1.96689
lowerneck -16.5846 0.81208 -1.8562
upperneck 15.0902 1.60359 -0.22492
head 7.35177 0.635706 0.406305
rclavicle 9.93923e-016 -5.56597e-015
rhumerus -41.0639 -26.8613 -64.7126
rradius 18.7537
rwrist -1.35178
rhand -14.4236 18.1199
rfingers 7.12502
rthumb 11.7206 -11.5322
lclavicle 9.93923e-016 -5.56597e-015
lhumerus -35.3185 5.18502 83.0258
lradius 36.473
lwrist -3.00333
lhand -3.51745 41.6464
lfingers 7.12502
lthumb 22.2173 70.3896
rfemur -8.47141 0.932357 30.344
rtibia 23.267
rfoot -21.3785 -9.35515
rtoes 10.0306
lfemur -33.7754 1.25549 -11.5913
ltibia 60.5411
lfoot -16.4922 -2.01091
ltoes -5.00991
186
root 0.0529758 17.3375 -32.0393 7.21178 -0.563364 -4.31155
lowerback 3.76081 -0.81853 2.60784
upperback 1.26283 -0.960732 3.36539
thorax -0.796494 -0.482937 2.0358
lowerneck -16.5139 0.737217 -1.8188
upperneck 15.0335 1.49674 -0.260845
head 7.32255 0.584171 0.376049
rclavicle 4.07509e-015 -2.18663e-014
rhumerus -41.2356 -26.7351 -64.6443
rradius 18.7402
rwrist -1.59289
rhand -14.3473 18.1134
rfingers 7.12502
rthumb 11.7942 -11.5345
lclavicle 4.07509e-015 -2.18663e-014
lhumerus -35.5796 5.09201 83.1798
lradius 36.758
lwrist -2.82093
lhand -3.44845 42.004
lfingers 7.12502
lthumb 22.2835 70.7392
rfemur -8.29017 0.852372 30.095
rtibia 23.1406
rfoot -21.3361 -9.59302
rtoes 16.7948
lfemur -34.1879 1.36061 -11.9697
ltibia 60.4808
lfoot -16.8979 -2.02665
ltoes -2.71768
187
root 0.0421857 17.3362 -32.0176 7.23744 -0.761841 -4.3037
lowerback 3.87389 -0.689266 2.4897
upperback 1.26699 -0.786796 3.4475
thorax -0.855552 -0.396533 2.18071
lowerneck -16.4158 0.624899 -1.89303
upperneck 14.9522 1.34298 -0.175093
head 7.27915 0.515591 0.398542
rclavicle -6.4605e-015 3.81667e-014
rhumerus -41.2403 -26.6554 -64.5571
rradius 18.7866
rwrist -1.75966
rhand -14.4936 17.6396
rfingers 7.12502
rthumb 11.6531 -12.0163
lclavicle -6.4605e-015 3.81667e-014
lhumerus -35.6674 5.12859 83.4299
lradius 36.7965
lwrist -2.73643
lhand -3.35301 42.3348
lfingers 7.12502
lthumb 22.3751 71.059
rfemur -8.16224 1.31221 30.0754
rtibia 23.0305
rfoot -21.5301 -9.58711
rtoes 17.7951
lfemur -34.7911 1.61687 -12.1191
ltibia 60.277
lfoot -16.8913 -1.72901
ltoes -3.72697
